<?xml version="1.0" encoding="utf-8"?>
<!-- Generator: Adobe Illustrator 27.5.0, SVG Export Plug-In . SVG Version: 6.00 Build 0)  -->
<svg version="1.1" xmlns="http://www.w3.org/2000/svg" xmlns:xlink="http://www.w3.org/1999/xlink" x="0px" y="0px"
	 viewBox="0 0 500 500" style="enable-background:new 0 0 500 500;" xml:space="preserve">
<g id="BACKGROUND">
	<rect x="0" y="0" style="fill:#A8E1FF;" width="500" height="500"/>
</g>
<g id="OBJECTS">
	<g>
		<g>
			<g>
				<g>
					<polygon style="fill:#79B6FF;" points="0,311.337 500,266.565 500,500.045 0,500.045 					"/>
				</g>
				<g>
					<g>
						<polygon style="fill:#A8E1FF;" points="0,311.337 0,329.826 500,326.305 500,266.565 						"/>
					</g>
					<g>
						<g>
							<path style="fill:#79B6FF;" d="M416.667,327.542c-0.359,0-0.65-0.291-0.65-0.65v-52.864c0-0.359,0.291-0.65,0.65-0.65
								c0.359,0,0.65,0.291,0.65,0.65v52.864C417.317,327.251,417.026,327.542,416.667,327.542z"/>
						</g>
						<g>
							<path style="fill:#79B6FF;" d="M333.334,328.129c-0.359,0-0.65-0.291-0.65-0.65V281.49c0-0.359,0.291-0.65,0.65-0.65
								c0.359,0,0.65,0.291,0.65,0.65v45.989C333.984,327.838,333.693,328.129,333.334,328.129z"/>
						</g>
						<g>
							<path style="fill:#79B6FF;" d="M250,328.716c-0.359,0-0.65-0.291-0.65-0.65v-39.114c0-0.359,0.291-0.65,0.65-0.65
								c0.359,0,0.65,0.291,0.65,0.65v39.114C250.65,328.425,250.359,328.716,250,328.716z"/>
						</g>
						<g>
							<path style="fill:#79B6FF;" d="M166.667,329.303c-0.359,0-0.65-0.291-0.65-0.65v-32.239c0-0.359,0.291-0.65,0.65-0.65
								c0.359,0,0.65,0.291,0.65,0.65v32.239C167.316,329.012,167.025,329.303,166.667,329.303z"/>
						</g>
						<g>
							<path style="fill:#79B6FF;" d="M83.333,329.89c-0.359,0-0.65-0.291-0.65-0.65v-25.364c0-0.359,0.291-0.65,0.65-0.65
								c0.359,0,0.65,0.291,0.65,0.65v25.364C83.983,329.599,83.692,329.89,83.333,329.89z"/>
						</g>
					</g>
				</g>
			</g>
			<g>
				<g>
					<circle style="fill:#A8E1FF;" cx="337.365" cy="404.826" r="6.224"/>
				</g>
				<g>
					<path style="fill:#5488F1;" d="M236.766,444.218c0-3.872,3.139-7.011,7.011-7.011c3.872,0,7.011,3.139,7.011,7.011
						c0,3.872-3.139,7.011-7.011,7.011C239.905,451.228,236.766,448.09,236.766,444.218z"/>
				</g>
				<g>
					<circle style="fill:#A8E1FF;" cx="139.681" cy="443.31" r="2.872"/>
				</g>
				<g>
					<circle style="fill:#A8E1FF;" cx="410.634" cy="370.657" r="2.872"/>
				</g>
				<g>
					<path style="fill:#A8E1FF;" d="M16.968,345.953c0-0.869,0.705-1.574,1.574-1.574s1.574,0.705,1.574,1.574
						c0,0.869-0.705,1.574-1.574,1.574S16.968,346.822,16.968,345.953z"/>
				</g>
				<g>
					<path style="fill:#A8E1FF;" d="M169.831,407.704c0-0.869,0.705-1.574,1.574-1.574s1.574,0.705,1.574,1.574
						c0,0.869-0.705,1.574-1.574,1.574S169.831,408.573,169.831,407.704z"/>
				</g>
				<g>
					<circle style="fill:#A8E1FF;" cx="271.483" cy="483.074" r="1.574"/>
				</g>
				<g>
					<path style="fill:#A8E1FF;" d="M318.064,377.944c0-0.869,0.705-1.574,1.574-1.574c0.869,0,1.574,0.705,1.574,1.574
						c0,0.869-0.705,1.574-1.574,1.574C318.769,379.518,318.064,378.813,318.064,377.944z"/>
				</g>
				<g>
					<path style="fill:#A8E1FF;" d="M406.188,460.655c0-0.869,0.705-1.574,1.574-1.574c0.869,0,1.574,0.705,1.574,1.574
						c0,0.869-0.705,1.574-1.574,1.574C406.893,462.229,406.188,461.524,406.188,460.655z"/>
				</g>
				<g>
					<circle style="fill:#A8E1FF;" cx="172.98" cy="474.276" r="1.574"/>
				</g>
				<g>
					<path style="fill:#5488F1;" d="M29.981,413.565c0-3.436,2.786-6.222,6.222-6.222c3.436,0,6.222,2.786,6.222,6.222
						c0,3.436-2.786,6.222-6.222,6.222C32.766,419.787,29.981,417.002,29.981,413.565z"/>
				</g>
				<g>
					<path style="fill:#5488F1;" d="M452.71,452.174c0-3.436,2.786-6.222,6.222-6.222c3.436,0,6.222,2.786,6.222,6.222
						c0,3.436-2.786,6.222-6.222,6.222C455.495,458.396,452.71,455.61,452.71,452.174z"/>
				</g>
				<g>
					<circle style="fill:#A8E1FF;" cx="71.61" cy="384.72" r="4.807"/>
				</g>
				<g>
					<g>
						<path style="fill:#A8E1FF;" d="M55.265,484.074c-0.13,0-0.261-0.001-0.392-0.003c-6.675-0.102-12.911-2.796-17.56-7.588
							c-4.648-4.792-7.152-11.107-7.051-17.783l0,0c0.102-6.675,2.797-12.911,7.589-17.559c4.792-4.648,11.115-7.137,17.782-7.05
							c6.675,0.102,12.911,2.797,17.56,7.589c4.648,4.792,7.152,11.107,7.051,17.782c-0.102,6.675-2.797,12.911-7.589,17.56
							C67.957,481.578,61.795,484.074,55.265,484.074z M32.263,458.731c-0.094,6.141,2.21,11.951,6.486,16.359
							c4.276,4.408,10.013,6.888,16.154,6.98c6.145,0.091,11.951-2.21,16.359-6.485c4.408-4.276,6.888-10.014,6.981-16.155
							c0.094-6.141-2.21-11.95-6.486-16.358c-4.276-4.409-10.014-6.889-16.154-6.981c-6.16-0.098-11.951,2.209-16.359,6.485
							S32.357,452.589,32.263,458.731L32.263,458.731z"/>
					</g>
					<g>
						<path style="fill:#A8E1FF;" d="M71.396,450.544c-1.22,2.04-5.115,1.957-8.701-0.187c-3.586-2.144-5.503-5.535-4.284-7.576
							c1.22-2.04,5.115-1.957,8.701,0.187C70.698,445.112,72.615,448.504,71.396,450.544z"/>
					</g>
				</g>
				<g>
					<g>
						<path style="fill:#A8E1FF;" d="M331.133,467.278c-4.193,0-8.149-1.603-11.167-4.529c-3.077-2.985-4.807-6.989-4.872-11.275
							c-0.065-4.286,1.542-8.342,4.527-11.419c2.984-3.077,6.988-4.808,11.274-4.873c4.278-0.042,8.342,1.542,11.42,4.527
							c3.077,2.985,4.807,6.989,4.872,11.275l0,0c0.066,4.286-1.542,8.342-4.527,11.419c-2.984,3.077-6.989,4.808-11.275,4.873
							C331.301,467.277,331.217,467.278,331.133,467.278z M331.147,436.679c-0.076,0-0.151,0.001-0.228,0.002
							c-3.886,0.06-7.516,1.628-10.222,4.418c-2.705,2.789-4.163,6.465-4.103,10.351c0.059,3.886,1.627,7.517,4.417,10.222
							c2.789,2.706,6.465,4.136,10.351,4.104c3.887-0.06,7.517-1.628,10.223-4.418c2.705-2.789,4.163-6.465,4.103-10.351l0,0
							c-0.059-3.886-1.627-7.517-4.417-10.222C338.537,438.132,334.949,436.679,331.147,436.679z"/>
					</g>
					<g>
						<path style="fill:#A8E1FF;" d="M320.848,445.785c0.778,1.301,3.262,1.248,5.548-0.119c2.286-1.367,3.509-3.53,2.731-4.831
							s-3.262-1.248-5.548,0.119C321.293,442.322,320.071,444.484,320.848,445.785z"/>
					</g>
				</g>
				<g>
					<g>
						<path style="fill:#A8E1FF;" d="M458.939,417.446c-0.084,0-0.168-0.001-0.252-0.002c-4.286-0.065-8.29-1.795-11.275-4.872
							c-2.984-3.077-4.593-7.133-4.527-11.42c0.065-4.286,1.796-8.29,4.873-11.274c3.077-2.985,7.137-4.596,11.419-4.527
							c8.848,0.134,15.936,7.442,15.803,16.292c-0.065,4.286-1.796,8.29-4.873,11.274
							C467.089,415.843,463.132,417.446,458.939,417.446z M443.634,401.163l0.75,0.012c-0.06,3.886,1.398,7.563,4.104,10.352
							c2.705,2.79,6.336,4.358,10.222,4.417c3.87,0.061,7.561-1.398,10.351-4.103c2.79-2.706,4.358-6.336,4.418-10.222
							c0.121-8.022-6.305-14.647-14.326-14.769c-3.873-0.049-7.562,1.398-10.351,4.103c-2.79,2.706-4.358,6.336-4.418,10.222
							L443.634,401.163z"/>
					</g>
					<g>
						<path style="fill:#A8E1FF;" d="M469.224,395.954c-0.778,1.301-3.262,1.248-5.548-0.119c-2.286-1.367-3.509-3.529-2.731-4.83
							c0.778-1.301,3.262-1.248,5.548,0.119C468.779,392.49,470.002,394.653,469.224,395.954z"/>
					</g>
				</g>
			</g>
			<g>
				<g>
					<g>
						<polygon style="fill:#A0CEE1;" points="270.94,287.076 270.94,270.544 259.425,268.881 259.425,250.045 244.262,247.359 
							244.262,231.315 231.153,228.479 231.153,211.261 215.99,206.859 215.99,189.641 202.393,185.924 202.393,172.913 
							132.202,149.337 51.496,193.31 51.496,306.677 						"/>
					</g>
					<g>
						<polygon style="fill:#89BAD3;" points="132.202,149.337 132.202,299.468 51.496,306.677 51.496,193.31 						"/>
					</g>
				</g>
				<g>
					<g>
						<polygon style="fill:#769FB1;" points="108.437,162.286 108.437,192.87 72.92,208.424 70.132,207.348 70.132,183.156 
							0,166.065 0,134.631 4.132,131.174 						"/>
					</g>
					<g>
						<polygon style="fill:#A0CEE1;" points="4.132,134.891 4.132,131.174 108.437,162.286 108.437,192.87 105.153,192.022 
							105.153,164.053 						"/>
					</g>
					<g>
						<polygon style="fill:#527E8F;" points="4.132,131.174 4.132,134.891 0,138.348 0,134.631 						"/>
					</g>
					<g>
						<polygon style="fill:#527E8F;" points="70.132,207.348 72.92,208.424 108.437,192.87 105.153,192.022 						"/>
					</g>
					<g>
						<path style="fill:#89BAD3;" d="M74.974,186.315v10.738c0,0.582,0.603,0.968,1.132,0.724l23.498-10.856
							c0.282-0.13,0.463-0.413,0.463-0.724V174.36c0-0.595-0.628-0.98-1.159-0.71L75.41,185.605
							C75.142,185.741,74.974,186.015,74.974,186.315z"/>
					</g>
					<g>
						<path style="fill:#527E8F;" d="M71.107,182.999c-0.133,0-0.262-0.071-0.33-0.195c-0.099-0.182-0.032-0.41,0.149-0.509
							l32.918-17.955c0.183-0.099,0.41-0.032,0.509,0.149c0.099,0.182,0.032,0.41-0.149,0.509l-32.917,17.956
							C71.229,182.985,71.168,182.999,71.107,182.999z"/>
					</g>
				</g>
			</g>
			<g>
				<g>
					<g>
						<polygon style="fill:#89BAD3;" points="354.566,279.588 354.566,204.739 500,172.522 500,266.565 						"/>
					</g>
					<g>
						<polygon style="fill:#769FB1;" points="354.566,270.739 500,255.218 500,266.565 354.566,279.588 						"/>
					</g>
					<g>
						<path style="fill:#A0CEE1;" d="M364.327,211.774v15.331c0,0.648,0.586,1.139,1.224,1.025l18.005-3.215
							c0.496-0.089,0.858-0.521,0.858-1.025v-16.032c0-0.664-0.613-1.158-1.262-1.017l-18.005,3.917
							C364.669,210.861,364.327,211.284,364.327,211.774z"/>
					</g>
				</g>
				<g>
					<g>
						<g>
							<path style="fill:#769FB1;" d="M403.512,60.283c0,0-60.474-1.029-83.863,43.615c0,0,12.885-5.484,26.881,3.851
								c0.466,0.311,1.069,0.33,1.536,0.02c3.207-2.133,16.386-9.582,31.552,0.316c0.46,0.3,1.048,0.31,1.514,0.019
								c2.152-1.344,9.099-4.918,21.974-4.797c12.875,0.121,19.753,3.825,21.88,5.21c0.46,0.3,1.049,0.301,1.514,0.01
								c15.35-9.61,28.387-1.914,31.553,0.279c0.461,0.319,1.064,0.312,1.536,0.009c14.17-9.07,26.949-3.344,26.949-3.344
								C463.995,60.394,403.512,60.283,403.512,60.283z"/>
						</g>
						<g>
							<g>
								<g>
									<path style="fill:#527E8F;" d="M347.322,107.999l-0.297-0.037c0.015-0.121,1.585-12.215,9.302-24.09
										c4.535-6.978,10.273-12.518,17.056-16.466c8.297-4.83,18.185-7.276,29.399-7.276c0.243,0,0.487,0.001,0.731,0.003
										l-0.002,0.3c-0.241-0.002-0.484-0.003-0.723-0.003c-25.486,0-39.184,12.8-46.204,23.597
										C348.901,95.844,347.337,107.879,347.322,107.999z"/>
								</g>
								<g>
									<path style="fill:#527E8F;" d="M380.496,108.303l-0.299-0.02c0.008-0.121,0.815-12.203,4.066-24.106
										c4.297-15.734,10.912-24.045,19.135-24.045c0.039,0,0.077,0,0.115,0l-0.002,0.3c-0.038,0-0.077,0-0.114,0
										c-10.193,0-15.872,12.941-18.844,23.821C381.31,96.127,380.504,108.182,380.496,108.303z"/>
								</g>
							</g>
							<g>
								<g>
									<path style="fill:#527E8F;" d="M458.793,109.05c-0.013-0.121-1.35-12.183-8.809-24.144
										c-6.879-11.03-20.525-24.229-46.473-24.474l0.002-0.3c11.518,0.108,21.607,2.746,29.989,7.839
										c6.707,4.076,12.34,9.723,16.742,16.785c7.492,12.019,8.834,24.14,8.847,24.261L458.793,109.05z"/>
								</g>
								<g>
									<path style="fill:#527E8F;" d="M425.62,108.728c-0.006-0.121-0.585-12.189-3.603-24.123
										c-2.776-10.974-8.24-24.076-18.505-24.173l0.002-0.3c8.277,0.078,14.776,8.517,18.795,24.404
										c3.025,11.962,3.605,24.058,3.61,24.178L425.62,108.728z"/>
								</g>
							</g>
						</g>
					</g>
					<g>
						<g>
							<g>
								<path style="fill:#527E8F;" d="M403.174,89.202c-0.011-0.002-0.022-0.004-0.033-0.007l-59.43-16.201
									c-0.206-0.056-0.326-0.268-0.27-0.473c0.056-0.206,0.275-0.327,0.473-0.27l58.124,15.844l-28.408-30.612
									c-0.145-0.156-0.136-0.4,0.02-0.545c0.157-0.145,0.401-0.134,0.545,0.02l29.33,31.604c0.117,0.126,0.137,0.315,0.047,0.462
									C403.49,89.16,403.331,89.23,403.174,89.202z"/>
							</g>
						</g>
						<g>
							<g>
								<path style="fill:#527E8F;" d="M403.174,89.202c-0.109-0.02-0.207-0.086-0.265-0.186c-0.086-0.149-0.064-0.337,0.056-0.461
									l29.914-30.986c0.148-0.154,0.392-0.157,0.545-0.009c0.153,0.148,0.157,0.392,0.009,0.545l-28.974,30.013L462.9,73.342
									c0.207-0.052,0.416,0.072,0.468,0.279c0.052,0.206-0.073,0.416-0.279,0.468l-59.752,15.108
									C403.283,89.21,403.228,89.212,403.174,89.202z"/>
							</g>
						</g>
					</g>
					<g>
						<g>
							<path style="fill:#D9EBF3;" d="M404.24,53.859c-0.292,0.144-0.168,0.288-0.195,0.432l0.001,0.432l0.002,0.863l0.004,1.726
								l0.007,3.452l0.014,6.904l0.029,13.809l0.059,27.618l0.117,55.236l0.234,110.472c0.001,0.552-0.445,1.001-0.998,1.002
								c-0.552,0.001-1.001-0.446-1.002-0.998v-0.004l0.234-110.472l0.117-55.236l0.058-27.618l0.029-13.809l0.015-6.904
								l0.007-3.452l0.004-1.726l0.002-0.863l0.001-0.432c-0.027-0.144,0.096-0.288-0.195-0.432c0-0.402,0.326-0.728,0.728-0.728
								C403.914,53.131,404.24,53.457,404.24,53.859z"/>
						</g>
					</g>
					<g>
						<g>
							<path style="fill:#A0CEE1;" d="M403.58,53.087c-66.194-0.624-83.931,50.811-83.931,50.811l0,0l0.645-0.594
								c5.266-4.847,12.314-6.583,18.925-4.661c8.53-9.093,20.765-12.491,32.135-8.924l0.507,0.159c0,0,11.904-8.63,31.451-8.446
								c19.547,0.184,31.286,9.037,31.286,9.037l0.51-0.149c11.435-3.351,23.604,0.277,31.961,9.529
								c6.647-1.797,13.66,0.072,18.834,5.017l0.634,0.606l0,0C486.538,105.471,469.774,53.71,403.58,53.087z"/>
						</g>
						<g>
							<path style="fill:#D9EBF3;" d="M319.649,103.898L319.649,103.898l0.645-0.594c5.266-4.847,12.314-6.583,18.925-4.661
								c8.53-9.093,20.765-12.491,32.135-8.924l0.507,0.159c0,0,4.006-37.052,31.718-36.79
								C337.386,52.463,319.649,103.898,319.649,103.898z"/>
						</g>
						<g>
							<path style="fill:#D9EBF3;" d="M486.538,105.471L486.538,105.471l-0.634-0.606c-5.174-4.945-12.187-6.814-18.834-5.017
								c-8.357-9.252-20.526-12.88-31.961-9.529l-0.51,0.149c0,0-3.306-37.121-31.019-37.382
								C469.774,53.71,486.538,105.471,486.538,105.471z"/>
						</g>
						<g>
							<path style="fill:#A0CEE1;" d="M403.58,53.087c-66.194-0.624-83.931,50.811-83.931,50.811l0,0l0.645-0.594
								c5.266-4.847,12.314-6.583,18.925-4.661C339.22,98.643,346.47,52.548,403.58,53.087z"/>
						</g>
						<g>
							<path style="fill:#A0CEE1;" d="M403.58,53.087c66.194,0.624,82.958,52.384,82.958,52.384l0,0l-0.634-0.606
								c-5.174-4.945-12.187-6.814-18.834-5.017C467.07,99.848,460.69,53.625,403.58,53.087z"/>
						</g>
					</g>
				</g>
				<g>
					<g>
						<polygon style="fill:#A0CEE1;" points="380.371,240.479 380.371,277.277 402.48,275.298 402.48,249.479 500,236.435 
							500,222.739 						"/>
					</g>
					<g>
						<polygon style="fill:#769FB1;" points="402.48,249.479 402.48,275.298 386.289,276.747 386.289,244.587 						"/>
					</g>
					<g>
						<polygon style="fill:#527E8F;" points="386.289,244.587 500,228.348 500,236.435 402.48,249.479 						"/>
					</g>
				</g>
			</g>
		</g>
		<g>
			<g>
				<g>
					<path style="fill:#DCF3FF;" d="M153.48,102.479L0,35.174V0h45.936c0,0,36,6.739,22.826,38.696c0,0,23.152-1.565,33.196,6.913
						c11.627,9.815-0.652,19.043-0.652,19.043s21.148,2.78,27.424,11.315c4.891,6.652-0.489,11.152-0.489,11.152L153.48,102.479z"/>
				</g>
				<g>
					<g>
						<path style="fill:#A8E1FF;" d="M54.186,39.881c-0.137,0-0.269-0.057-0.364-0.157c-0.1-0.106-0.149-0.251-0.133-0.396
							c0.014-0.133,1.33-13.417-6.795-20.626c-5.329-4.729-13.51-5.867-24.315-3.387c-0.271,0.062-0.538-0.107-0.599-0.375
							c-0.062-0.269,0.106-0.538,0.375-0.599c11.142-2.559,19.623-1.341,25.207,3.618c7.616,6.762,7.352,18.171,7.169,20.897
							l14.007-0.658c0.281-0.017,0.51,0.2,0.523,0.476c0.013,0.276-0.2,0.51-0.476,0.523L54.21,39.88
							C54.202,39.881,54.194,39.881,54.186,39.881z"/>
					</g>
					<g>
						<path style="fill:#A8E1FF;" d="M101.306,65.152c-0.216,0-0.414-0.141-0.479-0.357c-0.011-0.038-1.163-3.773-4.923-5.335
							c-3.432-1.424-7.921-0.672-13.339,2.243c-0.166,0.088-0.367,0.077-0.521-0.029c-0.154-0.106-0.236-0.291-0.212-0.477
							c0.005-0.037,0.457-3.705-1.719-5.529c-1.541-1.293-4.058-1.4-7.475-0.32c-0.262,0.082-0.544-0.063-0.627-0.327
							c-0.083-0.263,0.063-0.544,0.327-0.627c3.769-1.188,6.603-1.018,8.423,0.511c1.876,1.576,2.129,4.14,2.118,5.505
							c5.358-2.723,9.871-3.352,13.425-1.867c4.199,1.753,5.433,5.798,5.483,5.969c0.078,0.265-0.073,0.541-0.337,0.62
							C101.4,65.145,101.353,65.152,101.306,65.152z"/>
					</g>
				</g>
			</g>
			<g>
				<g>
					<path style="fill:#33884C;" d="M20.741,9.799C14.21,6.302,7.281,2.984,0,0.004L53.582,0c0,0,0.869,0.569,2.325,1.772
						l-10.3,0.456c-0.267,0.012-0.299,0.394-0.037,0.45l14.702,3.124c2.188,2.222,4.732,5.122,7.363,8.76l-9.577-1.087
						c-0.263-0.03-0.356,0.338-0.111,0.437l12.704,5.109c1.914,3.036,3.811,6.476,5.596,10.33l-5.469-1.74
						c-0.242-0.077-0.409,0.239-0.21,0.396l7.717,6.061c2.76,6.893,5.095,14.946,6.534,24.276c0,0-4.182-4.633-11.817-11.545
						l-6.758-17.161c-0.097-0.247-0.466-0.156-0.438,0.108l1.285,11.862c-2.51-2.139-5.262-4.406-8.246-6.755l-5.784-18
						c-0.079-0.247-0.444-0.19-0.444,0.07v13.169c-3.679-2.73-7.636-5.523-11.847-8.311L36.422,4.817
						c-0.066-0.256-0.441-0.214-0.448,0.05L35.6,18.446c-3.455-2.172-7.059-4.325-10.808-6.427L22.305,1.505
						c-0.058-0.245-0.413-0.228-0.447,0.022L20.741,9.799z"/>
				</g>
				<g>
					<path style="fill:#1F774B;" d="M84.818,58.719c-0.164,0-0.315-0.108-0.361-0.274C84.346,58.048,72.886,18.49,33.503,0.806
						c-0.189-0.085-0.273-0.307-0.189-0.496C33.4,0.121,33.62,0.039,33.81,0.121c39.712,17.832,51.257,57.721,51.37,58.122
						c0.056,0.2-0.061,0.406-0.26,0.462C84.886,58.715,84.852,58.719,84.818,58.719z"/>
				</g>
			</g>
			<g>
				<g>
					<path style="fill:#50A550;" d="M72.371,9.87C54.335,2.841,42.574,0,42.574,0l98.806,0c5.15,3.269,9.846,6.744,14.142,10.357
						l-16.469-0.562c-0.569-0.019-0.684,0.796-0.132,0.935l23.59,5.953c4.117,4.023,7.789,8.166,11.068,12.353l-12.51-3.127
						c-0.557-0.139-0.84,0.644-0.321,0.888c4.529,2.136,11.694,5.525,17.206,8.172c4.017,5.798,7.32,11.608,10.046,17.234
						l-11.396-6.153c-0.505-0.272-0.97,0.417-0.529,0.783l15.163,12.584c9.012,21.802,9.491,39.199,9.491,39.199
						c-8.65-10.223-17.838-19.471-27.259-27.838l-5.661-22.282c-0.137-0.542-0.935-0.442-0.935,0.117v16.481
						c-4.761-3.982-9.563-7.751-14.369-11.305l-4.175-22.266c-0.103-0.55-0.907-0.5-0.941,0.059l-1.08,17.744
						c-4.836-3.399-9.659-6.593-14.431-9.585l-3.512-22.102c-0.09-0.568-0.924-0.516-0.943,0.058l-0.649,18.909
						c-5.342-3.22-10.6-6.191-15.721-8.926c-0.678-4.743-2.165-14.91-2.999-20.608c-0.082-0.558-0.895-0.527-0.942,0.036
						l-1.476,17.737c-4.759-2.439-9.38-4.675-13.806-6.711l-0.778-13.08c-0.034-0.564-0.848-0.608-0.942-0.051l-1.946,11.472
						c-4.238-1.892-8.28-3.6-12.082-5.132l-0.989-9.129c-0.043-0.396-0.602-0.437-0.703-0.052L72.371,9.87z"/>
				</g>
				<g>
					<path style="fill:#33884C;" d="M200.73,99.116c-0.215,0-0.414-0.14-0.479-0.357c-0.051-0.171-5.292-17.388-19.113-37.93
						c-12.746-18.946-35.608-44.678-72.139-59.676c-0.255-0.105-0.378-0.397-0.272-0.652c0.105-0.256,0.399-0.377,0.652-0.272
						c36.777,15.099,59.784,41.001,72.609,60.072c13.896,20.664,19.169,38,19.221,38.172c0.079,0.264-0.071,0.543-0.336,0.622
						C200.825,99.109,200.777,99.116,200.73,99.116z"/>
				</g>
			</g>
			<g>
				<g>
					<path style="fill:#DCF3FF;" d="M477.284,0L286.523,92.5l51.065-35.049c0,0-10.696-23.19,21.13-23.06
						c0,0-3.783-16.043,15.522-13.174c0,0-3.783-15.304,7.043-21.217H477.284z"/>
				</g>
				<g>
					<path style="fill:#A8E1FF;" d="M388.165,26.256c-0.069,0-0.139-0.019-0.2-0.058c-0.061-0.039-6.278-3.907-13.759-4.607
						c-0.206-0.02-0.357-0.202-0.338-0.409c0.019-0.206,0.204-0.354,0.408-0.338c6.423,0.601,11.932,3.482,13.584,4.422
						c0.454-3.384,3.483-20.315,18.495-20.315c0.232,0,0.465,0.004,0.702,0.012c0.207,0.007,0.369,0.181,0.362,0.388
						c-0.007,0.207-0.175,0.355-0.388,0.362c-0.226-0.008-0.448-0.012-0.667-0.012c-15.915,0-17.809,20.007-17.826,20.212
						c-0.012,0.13-0.09,0.246-0.207,0.304C388.279,26.243,388.221,26.256,388.165,26.256z"/>
				</g>
			</g>
			<g>
				<g>
					<path style="fill:#DCF3FF;" d="M270.373,140.905l-84.715,0.108l19.473-3.697c0,0,1.067-10.594,11.596-7.574
						c0,0,0.458-16.243,14.943-16.247c13.389-0.004,15.964,14.545,10.406,19.618c0,0,2.535-0.844,2.916,2.469
						c0,0,2.423-4.378,6.725-2.914c4.912,1.672,2.963,5.591,2.963,5.591L270.373,140.905z"/>
				</g>
				<g>
					<path style="fill:#A8E1FF;" d="M240.122,135.233c-0.018,0-0.036-0.002-0.054-0.006c-0.112-0.025-0.193-0.123-0.196-0.237
						c-0.001-0.038-0.13-3.781-2.495-5.616c-1.289-1.001-3.02-1.262-5.143-0.781c-0.141,0.032-0.269-0.054-0.299-0.188
						c-0.031-0.135,0.054-0.269,0.188-0.299c2.277-0.519,4.149-0.224,5.563,0.875c1.89,1.468,2.451,3.961,2.617,5.222
						c0.756-1.036,1.656-1.316,1.701-1.33c0.131-0.038,0.271,0.036,0.31,0.168c0.04,0.132-0.035,0.271-0.167,0.312
						c-0.011,0.003-1.111,0.355-1.802,1.742C240.303,135.181,240.215,135.233,240.122,135.233z"/>
				</g>
			</g>
		</g>
	</g>
	<g>
		<g>
			<g>
				<g>
					<g>
						<path style="fill:#D55454;" d="M457.543,323.039l29.291,7.637c0.478,0.125,0.762,0.616,0.632,1.092l0,0
							c-0.379,1.389-1.653,2.342-3.092,2.313l-32.427-0.59L457.543,323.039z"/>
					</g>
					<g>
						<path style="fill:#EE7767;" d="M439.066,324.218l12.84-1.701c1.599-0.212,3.223-0.11,4.783,0.299l24.907,6.53
							c0.457,0.12,0.72,0.597,0.579,1.048l0,0c-0.502,1.593-2.002,2.659-3.672,2.608l-22.475-0.512
							c-0.872-0.02-1.523,0.797-1.31,1.642l0,0l10.662,0.538c1.992,0.1,3.555,1.745,3.555,3.739l0,0
							c0,0.843-0.684,1.527-1.527,1.527h-8.321l-8.096,0.61c-3.151,0.238-6.283-0.658-8.833-2.525l-5.311-2.455l-31.139,6.469
							c-6.132,1.556-12.545,1.642-18.716,0.249l-10.538-2.379l-54.52,8.508l18.264-31.929L439.066,324.218z"/>
					</g>
					<g>
						<g>
							<path style="fill:#D55454;" d="M454.718,334.505c-0.002,0-0.005,0-0.008,0c-0.047-0.001-1.16-0.033-1.937-0.869
								c-0.525-0.565-0.765-1.343-0.712-2.315c0.012-0.206,0.192-0.384,0.395-0.353c0.206,0.011,0.365,0.188,0.353,0.395
								c-0.04,0.756,0.131,1.348,0.508,1.758c0.557,0.604,1.401,0.635,1.409,0.635c0.207,0.006,0.37,0.178,0.365,0.384
								C455.087,334.343,454.921,334.505,454.718,334.505z"/>
						</g>
						<g>
							<path style="fill:#D55454;" d="M377.599,335.467c-0.414,0-0.75-0.336-0.75-0.75v-5.38c0-0.414,0.336-0.75,0.75-0.75
								c0.414,0,0.75,0.336,0.75,0.75v5.38C378.349,335.131,378.013,335.467,377.599,335.467z"/>
						</g>
						<g>
							<polygon style="fill:#4970E9;" points="356.359,317.749 354.468,343.336 321.936,348.413 340.2,316.484 							"/>
						</g>
					</g>
				</g>
				<g>
					<g>
						<g>
							<path style="fill:#D55454;" d="M88.136,282.699l-1.538,0.789c-1.451,0.745-2.304,2.296-2.156,3.92l0,0
								c0.082,0.895,0.916,1.525,1.799,1.359l3.296-0.618L88.136,282.699z"/>
						</g>
						<g>
							<path style="fill:#EE7767;" d="M180.442,383.599l16.625-31.235l-24.496-7.533c-3.005-1.426-1.647-13.794-11.808-25.275
								c-8.18-9.243-24.215-28.894-24.215-28.894s-2.257-3.585-2.328-9.36c-0.04-3.259-0.164-11.396-6.094-13.425
								c-5.93-2.028-9.841,2.307-12.397,5.678c-2.556,3.371-6.755,4.447-15.023,5.243c-4.528,0.436-8.543,1.849-11.249,3.038
								c-2.117,0.93-3.275,3.232-2.795,5.495l0,0c0.198,0.93,1.118,1.517,2.044,1.301c1.681-0.392,4.149-0.957,5.12-1.131
								c1.533-0.274,5.468,1.033,8.99,1.532c2.334,0.331,9.675,1.215,14.361,1.773c2.532,0.302,4.707,1.924,5.724,4.262
								l30.223,69.542c1.318,3.033,3.587,5.554,6.465,7.183L180.442,383.599z"/>
						</g>
						<g>
							<path style="fill:#D55454;" d="M172.571,344.832c-2.06-0.978-2.071-7.098-5.146-14.549
								c-14.779,1.461-26.039-2.113-31.021-4.144l16.72,38.472c1.318,3.033,3.587,5.554,6.465,7.183l20.854,11.806l16.625-31.235
								L172.571,344.832z"/>
						</g>
						<g>
							<path style="fill:#D55454;" d="M125.369,285.115c-0.055,0-0.111-0.009-0.166-0.028c-0.26-0.092-0.397-0.377-0.306-0.638
								c0.215-0.613,0.646-2.425,0.067-3.436c-0.678-1.184-2.89-1.326-3.688-1.285c-0.275,0.026-0.511-0.195-0.526-0.472
								c-0.016-0.275,0.196-0.512,0.472-0.526c0.141-0.008,3.49-0.17,4.61,1.785c0.927,1.617,0.046,4.159,0.009,4.266
								C125.768,284.987,125.575,285.115,125.369,285.115z"/>
						</g>
					</g>
					<g>
						<g>
							<path style="fill:#D55454;" d="M35.189,321.564l-1.024,1.392c-0.966,1.314-1.037,3.083-0.179,4.47v0
								c0.472,0.764,1.5,0.956,2.216,0.413l2.674-2.025L35.189,321.564z"/>
						</g>
						<g>
							<path style="fill:#EE7767;" d="M162.826,370.657l0.937-35.371l-25.283,4.193c-3.326,0.065-7.63-11.609-21.848-17.348
								c-11.446-4.62-34.565-15.049-34.565-15.049s-3.619-2.201-6.261-7.337c-1.491-2.899-5.234-10.125-11.446-9.294
								c-6.212,0.832-7.777,6.457-8.56,10.614s-4.06,6.995-11.103,11.397c-3.857,2.411-6.82,5.467-8.711,7.739
								c-1.479,1.778-1.488,4.354-0.048,6.164l0,0c0.592,0.744,1.677,0.859,2.41,0.252c1.329-1.101,3.286-2.708,4.077-3.297
								c1.249-0.929,5.354-1.516,8.729-2.641c2.237-0.746,9.2-3.231,13.642-4.823c2.4-0.86,5.071-0.379,7.024,1.26l58.084,48.742
								c2.533,2.126,5.689,3.369,8.991,3.542L162.826,370.657z"/>
						</g>
						<g>
							<path style="fill:#D55454;" d="M138.512,348.283c-0.414,0-0.75-0.336-0.75-0.75v-6.015c0-0.414,0.336-0.75,0.75-0.75
								c0.414,0,0.75,0.336,0.75,0.75v6.015C139.262,347.947,138.926,348.283,138.512,348.283z"/>
						</g>
						<g>
							<path style="fill:#D55454;" d="M71.403,303.571c-0.25,0-0.466-0.188-0.496-0.442c-0.076-0.645-0.483-2.462-1.447-3.116
								c-1.123-0.767-3.181,0.075-3.877,0.463c-0.243,0.136-0.546,0.047-0.68-0.193c-0.134-0.241-0.048-0.545,0.193-0.68
								c0.124-0.069,3.06-1.685,4.926-0.418c1.542,1.047,1.866,3.716,1.879,3.829c0.032,0.274-0.165,0.522-0.439,0.554
								C71.441,303.57,71.422,303.571,71.403,303.571z"/>
						</g>
					</g>
				</g>
				<g>
					<g>
						<path style="fill:#4970E9;" d="M351.476,318.607l-56.92-10.712l-89.23,18.618c0,0-25.129-2.086-41.564,8.773l-11.746,1.948
							c0,0,6.268,14.683,2.158,32.969c0,0,19.958,31.409,82.175,21.431C236.349,391.634,307.763,379.503,351.476,318.607z"/>
					</g>
					<g>
						<g>
							<path style="fill:#4448A9;" d="M208.566,380.199c-0.095,0-0.19-0.026-0.275-0.083c-4.127-2.723-6.005-5.946-6.501-6.911
								l-47.643-2.503c-0.275-0.015-0.487-0.249-0.473-0.525c0.015-0.275,0.237-0.515,0.526-0.473l47.936,2.519
								c0.187,0.01,0.354,0.124,0.43,0.295c0.017,0.037,1.722,3.761,6.275,6.765c0.23,0.151,0.294,0.462,0.142,0.692
								C208.888,380.12,208.729,380.199,208.566,380.199z"/>
						</g>
						<g>
							<path style="fill:#D55454;" d="M297.438,308.437c0,0-0.811,18.362,8.063,22.824c12.97,6.522,30.966-15.479,30.966-15.479
								L297.438,308.437z"/>
						</g>
						<g>
							<path style="fill:#4448A9;" d="M325.216,347.939c-0.139,0-0.277-0.058-0.376-0.171c-0.183-0.208-0.161-0.523,0.047-0.705
								c6.372-5.576,12.331-11.607,17.711-17.925c0.18-0.21,0.496-0.235,0.705-0.057c0.21,0.18,0.235,0.495,0.057,0.705
								c-5.411,6.354-11.405,12.42-17.814,18.028C325.451,347.898,325.334,347.939,325.216,347.939z"/>
						</g>
						<g>
							<path style="fill:#4448A9;" d="M279.556,335.633c0,0,9.194,11.398,24.605,17.189
								C304.161,352.822,281.294,359.991,279.556,335.633z"/>
						</g>
					</g>
				</g>
				<g>
					<g>
						<path style="fill:#D55454;" d="M179.819,216.803l16.221,6.646l10.721,9.346l-5.021,0.083l-8.729-7.226l-10.756-4.643
							C180.605,220.296,179.616,218.588,179.819,216.803L179.819,216.803z"/>
					</g>
					<g>
						<path style="fill:#EE7767;" d="M178.131,212.084l20.532,8.32l6.973,11.475l-10.633-7.958l-15.106-6.068
							c-2.081-0.836-3.251-3.056-2.765-5.245l0,0C177.232,212.163,177.708,211.913,178.131,212.084z"/>
					</g>
					<g>
						<path style="fill:#EE7767;" d="M221.007,237.362l-13.985-16.688c-1.085-1.295-2.503-2.268-4.1-2.817l-20.173-6.92
							c-0.378-0.13-0.794,0.044-0.968,0.404l0,0c-0.88,1.818-0.085,4.003,1.756,4.833l14.661,6.602l4.442,5.669
							c0.809,1.032,1.037,2.404,0.608,3.642l0,0l-7.296-6.273c-1.634-1.405-4.053-1.396-5.677,0.021l0,0
							c-0.547,0.478-0.587,1.315-0.087,1.842l5.697,6.013l4.899,5.783c1.957,2.31,4.613,3.919,7.567,4.582l5.783,2.422l15.386,27.73
							c2.859,5.643,7.012,10.531,12.119,14.264l8.721,6.375l20.403,32.344l23.91-19.289L221.007,237.362z"/>
					</g>
					<g>
						<g>
							<path style="fill:#D55454;" d="M250.788,288.737c-0.209,0-0.417-0.087-0.565-0.257c-0.272-0.311-0.24-0.786,0.072-1.059
								l4.053-3.538c0.314-0.272,0.786-0.239,1.059,0.072c0.272,0.311,0.24,0.786-0.072,1.059l-4.053,3.538
								C251.138,288.676,250.962,288.737,250.788,288.737z"/>
						</g>
						<g>
							<polygon style="fill:#4970E9;" points="275.069,289.131 256.541,304.649 277.003,337.085 296.494,309.647 							"/>
						</g>
						<g>
							<path style="fill:#4448A9;" d="M268.595,324.257c-0.165,0-0.328-0.082-0.423-0.233l-5.823-9.23
								c-0.148-0.233-0.077-0.542,0.156-0.69c0.232-0.147,0.542-0.079,0.69,0.156l5.823,9.23c0.147,0.233,0.077,0.542-0.156,0.689
								C268.779,324.233,268.687,324.257,268.595,324.257z"/>
						</g>
						<g>
							<path style="fill:#D55454;" d="M203.247,232.463c-0.04,0-0.082-0.007-0.123-0.021c-0.195-0.068-0.299-0.282-0.231-0.477
								c0.39-1.123,0.185-2.352-0.548-3.288l-4.385-5.596l-14.577-6.564c-1.157-0.521-2-1.575-2.255-2.82
								c-0.042-0.203,0.089-0.401,0.292-0.442c0.202-0.043,0.401,0.089,0.442,0.292c0.207,1.009,0.891,1.864,1.828,2.287
								l14.661,6.602c0.056,0.025,0.104,0.063,0.142,0.11l4.442,5.669c0.891,1.137,1.14,2.631,0.667,3.997
								C203.547,232.365,203.402,232.463,203.247,232.463z"/>
						</g>
					</g>
				</g>
			</g>
			<g>
				<g>
					<path d="M307.04,245.244l12.969-22.246c3.246-5.568,9.151-9.059,15.595-9.172c14.529-0.255,40.371,4.224,58.001,35.237
						c2.967,5.22,2.855,11.65-0.26,16.783l-13.536,22.309L307.04,245.244z"/>
				</g>
				<g>
					<g>
						<path style="fill:#EE7767;" d="M380.265,278.7c12.381-21.575,0.923-42.653-21.122-52.917
							c-23.019-10.717-41.473-0.793-51.018,17.599l-0.001-0.001l-0.015,0.031c-0.006,0.012-0.012,0.024-0.018,0.036l-8.014,14.694
							c0,0-7.203,1.981-12.75,10.293c-10.994,16.474-2.518,38.504,19.882,46.901c21.944,8.226,48.747,3.704,58.891-13.653
							C366.099,301.684,380.252,278.722,380.265,278.7z"/>
					</g>
					<g>
						<g>
							<g>
								<path style="fill:#D55454;" d="M319.517,275.209c-0.043,0-0.087-0.004-0.131-0.012l-2.078-0.364
									c-0.407-0.071-0.681-0.46-0.608-0.868c0.071-0.408,0.462-0.679,0.868-0.608l2.078,0.364c0.407,0.071,0.681,0.46,0.608,0.868
									C320.191,274.953,319.875,275.209,319.517,275.209z"/>
							</g>
							<g>
								<path style="fill:#D55454;" d="M312.794,272.753c-0.191,0-0.382-0.072-0.528-0.218c-0.287-0.285-2.804-2.852-2.645-5.174
									c0.057-0.832,0.454-1.549,1.15-2.072c1.826-1.37,5.278,0.344,6.839,1.253l0.574-0.932c0.217-0.352,0.678-0.462,1.032-0.245
									c0.353,0.218,0.462,0.68,0.245,1.032l-0.966,1.567c-0.105,0.172-0.276,0.293-0.473,0.338
									c-0.195,0.046-0.402,0.009-0.572-0.1c-1.803-1.16-4.789-2.457-5.777-1.714c-0.352,0.264-0.528,0.573-0.556,0.975
									c-0.096,1.393,1.56,3.365,2.205,4.008c0.294,0.292,0.295,0.767,0.004,1.061
									C313.179,272.679,312.986,272.753,312.794,272.753z"/>
							</g>
						</g>
						<g>
							<g>
								<path d="M330.355,264.11c-2.365,4.192-3.326,8.13-2.144,8.797s4.056-2.191,6.422-6.383c2.366-4.192,3.326-8.13,2.144-8.797
									C335.596,257.06,332.721,259.918,330.355,264.11z"/>
							</g>
							<g>
								<path d="M308.064,255.001c-2.155,3.819-3.156,7.335-2.236,7.854c0.92,0.519,3.413-2.156,5.568-5.974
									c2.155-3.819,3.156-7.335,2.236-7.855C312.711,248.508,310.219,251.183,308.064,255.001z"/>
							</g>
						</g>
						<g>
							<g>
								<path d="M349.269,256.985c-0.438,0-0.839-0.289-0.962-0.732c-0.943-3.386-2.892-5.747-5.485-6.65
									c-2.372-0.828-5.092-0.312-7.461,1.411c-0.447,0.326-1.073,0.226-1.397-0.221c-0.325-0.446-0.227-1.072,0.221-1.396
									c2.908-2.115,6.297-2.727,9.295-1.682c3.23,1.125,5.629,3.967,6.753,8.002c0.148,0.532-0.162,1.084-0.694,1.232
									C349.449,256.973,349.358,256.985,349.269,256.985z"/>
							</g>
							<g>
								<path d="M319.487,245.261c-0.518,0-0.955-0.398-0.996-0.922c-0.201-2.587-1.233-4.318-2.903-4.875
									c-1.815-0.604-4.052,0.281-5.835,2.311c-0.364,0.415-0.996,0.455-1.411,0.091c-0.415-0.365-0.456-0.996-0.091-1.412
									c2.322-2.644,5.379-3.751,7.969-2.888c2.446,0.815,4.001,3.227,4.266,6.617c0.043,0.551-0.369,1.032-0.919,1.075
									C319.54,245.26,319.513,245.261,319.487,245.261z"/>
							</g>
						</g>
						<g>
							<g>
								<path style="fill:#D55454;" d="M337.714,280.986c2.522-4.095,7.887-5.37,11.982-2.848s5.37,7.887,2.848,11.982
									c-2.522,4.095-7.887,5.37-11.982,2.848C336.467,290.446,335.192,285.081,337.714,280.986z"/>
							</g>
							<g>
								<path style="fill:#D55454;" d="M300.09,258.116l-0.014,0.026c0,0-6.976,1.933-12.485,9.92
									c0.243,0.19,0.495,0.371,0.764,0.537c3.861,2.378,8.92,1.176,11.298-2.686C301.161,263.466,301.226,260.539,300.09,258.116z
									"/>
							</g>
						</g>
						<g>
							<g>
								<path style="fill:#801848;" d="M333.699,283.589l-23.083-6.688c-6.786-2.218-9.461-0.151-11.53,4.235
									c-2.674,5.668,0.143,12.999,6.881,17.632c6.327,4.35,16.268,7.35,24.535,5.531c8.231-1.811,11.456-8.319,11.287-11.832
									C341.543,287.3,338.642,285.126,333.699,283.589z"/>
							</g>
							<g>
								<g>
									<path style="fill:#F9F0DD;" d="M318.592,288.936c11.268,3.547,17.162-3.475,17.824-4.325
										c-0.822-0.378-1.726-0.714-2.717-1.022l-23.083-6.688c-0.816-0.267-1.57-0.468-2.273-0.614l-0.117,0.729
										c-0.427,2.651,0.412,5.362,2.311,7.261C312.191,285.929,314.739,287.724,318.592,288.936z"/>
								</g>
								<g>
									<g>
										<path style="fill:#BEDCFF;" d="M329.313,289.33c-0.02,0-0.04-0.002-0.061-0.005c-0.204-0.034-0.342-0.227-0.309-0.432
											l1.016-6.152c0.033-0.204,0.211-0.344,0.432-0.309c0.204,0.034,0.342,0.227,0.309,0.432l-1.016,6.152
											C329.653,289.201,329.494,289.33,329.313,289.33z"/>
									</g>
									<g>
										<path style="fill:#BEDCFF;" d="M319.651,289.288c-0.026,0-0.053-0.003-0.08-0.009c-0.202-0.044-0.33-0.244-0.286-0.446
											l1.866-8.519c0.044-0.202,0.239-0.328,0.446-0.286c0.202,0.044,0.33,0.244,0.286,0.446l-1.866,8.519
											C319.979,289.169,319.824,289.288,319.651,289.288z"/>
									</g>
									<g>
										<path style="fill:#BEDCFF;" d="M310.257,283.969c-0.027,0-0.056-0.003-0.084-0.01c-0.202-0.046-0.328-0.247-0.281-0.449
											l1.434-6.243c0.046-0.202,0.242-0.332,0.449-0.281c0.202,0.046,0.328,0.247,0.281,0.449l-1.434,6.243
											C310.582,283.852,310.427,283.969,310.257,283.969z"/>
									</g>
								</g>
							</g>
							<g>
								<path style="fill:#E33432;" d="M335.325,302.43c-1.903-2.735-5.748-5.415-10.582-7.059
									c-7.786-2.649-15.181-1.612-16.518,2.316c-0.263,0.774-0.263,1.603-0.048,2.454c6.282,3.573,14.964,5.777,22.325,4.158
									C332.364,303.89,333.957,303.231,335.325,302.43z"/>
							</g>
						</g>
						<g>
							<path d="M372.161,292.984c3.956-6.418,8.635-14.169,8.642-14.182c12.678-22.818,0.613-42.931-21.313-53.446
								c-16.736-8.026-32.424-5.494-41.053,4.583c0.184-0.035,26.063-4.87,50.403,25.412l-4.274,9.714l3.531,5.148l-7.993,14.855
								L372.161,292.984z"/>
						</g>
						<g>
							<g>
								
									<ellipse transform="matrix(0.8448 -0.5351 0.5351 0.8448 -103.7125 245.2031)" style="fill:#EE7767;" cx="370.831" cy="301.384" rx="19.563" ry="16.978"/>
							</g>
							<g>
								<g>
									<g>
										<path style="fill:#D55454;" d="M359.724,305.049c-0.258,0-0.516-0.1-0.712-0.298c-0.388-0.393-0.384-1.025,0.01-1.414
											c5.539-5.469,10.794-8.059,15.227-7.499c2.799,0.356,5.164,2.027,6.841,4.832c0.283,0.474,0.129,1.088-0.346,1.371
											c-0.472,0.281-1.088,0.129-1.371-0.346c-1.369-2.29-3.178-3.594-5.376-3.873c-3.748-0.48-8.557,1.989-13.57,6.939
											C360.232,304.953,359.978,305.049,359.724,305.049z"/>
									</g>
									<g>
										<path style="fill:#D55454;" d="M364.849,310.39c-0.351,0-0.691-0.185-0.874-0.512c-0.27-0.481-0.098-1.091,0.384-1.361
											c0.854-0.48,3.116-2.145,3.311-4.052c0.24-2.333-3.105-3.784-3.14-3.799c-0.511-0.211-0.753-0.795-0.542-1.306
											c0.211-0.512,0.797-0.752,1.306-0.542c0.194,0.08,4.761,2.013,4.366,5.852c-0.344,3.337-4.164,5.503-4.326,5.593
											C365.18,310.349,365.013,310.39,364.849,310.39z"/>
									</g>
								</g>
							</g>
							<g>
								<path style="fill:#D55454;" d="M354.906,313.479c-0.229,0-0.456-0.104-0.603-0.304c-0.221-0.298-0.432-0.605-0.632-0.923
									c-0.642-1.015-1.168-2.103-1.561-3.232c-0.137-0.391,0.07-0.818,0.462-0.954c0.389-0.136,0.818,0.07,0.954,0.462
									c0.355,1.021,0.83,2.005,1.412,2.923c0.181,0.287,0.37,0.564,0.569,0.832c0.247,0.332,0.177,0.802-0.156,1.049
									C355.217,313.431,355.061,313.479,354.906,313.479z"/>
							</g>
						</g>
					</g>
				</g>
			</g>
		</g>
		<g>
			<g style="opacity:0.6;">
				<g>
					<path style="fill:#79B6FF;" d="M166.667,296.413c26.589-6.022,22.03-22.739,7.748-11.391
						c-14.271,11.339-23.077,12.763-23.091,12.765h-0.001c36.876-29.496,11.45-42.602,9.2-26.754
						c-2.25,15.848-14.283,27.163-14.283,27.163s-0.028,0.02-0.071,0.053l-22.96,2.056c0,0-7.686-8.957-13.751-8.304
						c-5.402,0.581,0.116,6.229,9.312,8.702l-68.212,6.108c-0.512,0.042-4.629,0.288-11.681-2.027
						c-6.293-2.066-11.51-11.466-13.6-20.358c-0.665-2.829-3.426-4.637-6.265-4.013c-2.472,0.544-4.2,2.767-4.129,5.298
						c0.149,5.273,3.237,14.259,19.84,22.115c-1.461-0.703-13.853-6.52-18.33-3.949c-4.76,2.733,8.137,5.265,8.139,5.265L0,311.337
						v188.708h500v-233.48L166.667,296.413z"/>
				</g>
				<g>
					<path style="fill:#79B6FF;" d="M144.284,277.652c0,0,1.121-20.3-6.652-18.065C132.414,261.087,135.219,273.218,144.284,277.652
						z"/>
				</g>
				<g>
					<path style="fill:#79B6FF;" d="M48.472,298.424c0,0-4.475-14.648-9.393-11.051C35.778,289.788,40.909,297.64,48.472,298.424z"
						/>
				</g>
				<g>
					<path style="fill:#79B6FF;" d="M269.893,271.223c0,0,0.591-15.22-5.352-13.875C260.551,258.25,263.267,267.495,269.893,271.223
						z"/>
				</g>
				<g>
					<path style="fill:#79B6FF;" d="M228.008,287.241c0,0-10.686-10.853-13.776-5.601
						C212.158,285.165,220.754,289.517,228.008,287.241z"/>
				</g>
			</g>
			<g>
				<g>
					<path style="fill:#F9F0DD;" d="M189.936,294.456c-0.256,0-0.475-0.196-0.498-0.456c-0.024-0.275,0.179-0.518,0.454-0.542
						l308.957-27.293c0.256-0.02,0.517,0.179,0.542,0.454c0.024,0.275-0.179,0.517-0.454,0.542L189.98,294.454
						C189.965,294.455,189.95,294.456,189.936,294.456z"/>
				</g>
				<g>
					<path style="fill:#F9F0DD;" d="M124.89,300.621c-0.256,0-0.474-0.195-0.498-0.455c-0.024-0.275,0.179-0.518,0.454-0.543
						l18.33-1.638c0.286-0.018,0.518,0.179,0.543,0.453c0.024,0.275-0.179,0.518-0.454,0.543l-18.33,1.638
						C124.92,300.62,124.905,300.621,124.89,300.621z"/>
				</g>
				<g>
					<path style="fill:#F9F0DD;" d="M53.184,307.074c-0.256,0-0.474-0.195-0.497-0.455c-0.025-0.275,0.178-0.518,0.453-0.543
						l26.938-2.441c0.269-0.014,0.519,0.179,0.543,0.453c0.025,0.274-0.178,0.518-0.453,0.543l-26.938,2.441
						C53.214,307.074,53.199,307.074,53.184,307.074z"/>
				</g>
			</g>
		</g>
		<g>
			<g>
				<path style="fill:#F9F0DD;" d="M301.369,219.72c-0.357,0-0.714-0.126-1-0.383l-10.595-9.496
					c-0.617-0.553-0.669-1.501-0.116-2.118c0.554-0.617,1.502-0.67,2.118-0.116l10.595,9.496c0.617,0.553,0.669,1.501,0.116,2.118
					C302.19,219.552,301.781,219.72,301.369,219.72z"/>
			</g>
			<g>
				<g>
					<path style="fill:#F9F0DD;" d="M295.183,226.623c-0.145,0-0.291-0.021-0.436-0.065l-9.57-2.9
						c-0.793-0.24-1.241-1.078-1.001-1.871c0.241-0.793,1.083-1.237,1.87-1.001l9.57,2.9c0.793,0.24,1.241,1.078,1.001,1.871
						C296.421,226.206,295.827,226.623,295.183,226.623z"/>
				</g>
				<g>
					<path style="fill:#F9F0DD;" d="M307.376,212.392c-0.583,0-1.138-0.342-1.381-0.912l-3.745-8.772
						c-0.325-0.762,0.029-1.643,0.791-1.968c0.763-0.326,1.644,0.029,1.969,0.791l3.745,8.772c0.325,0.762-0.029,1.643-0.791,1.968
						C307.771,212.353,307.572,212.392,307.376,212.392z"/>
				</g>
			</g>
		</g>
		<g>
			<g>
				<path style="fill:#F9F0DD;" d="M242.076,232.588c-0.178,0-0.351-0.095-0.441-0.263c-0.21-0.389-21.667-38.94-80.403-37.259
					c-0.263,0.01-0.506-0.21-0.514-0.486c-0.008-0.276,0.21-0.506,0.486-0.514c59.377-1.683,81.1,37.391,81.313,37.786
					c0.131,0.243,0.039,0.546-0.204,0.677C242.237,232.569,242.156,232.588,242.076,232.588z"/>
			</g>
			<g>
				<path style="fill:#F9F0DD;" d="M233.24,208.924c-0.14,0-0.28-0.059-0.378-0.173c-0.138-0.16-14.098-15.988-42.998-20.212
					c-0.273-0.04-0.462-0.294-0.422-0.567c0.04-0.273,0.294-0.466,0.567-0.422c29.292,4.282,43.471,20.386,43.611,20.548
					c0.18,0.21,0.157,0.525-0.052,0.705C233.472,208.884,233.356,208.924,233.24,208.924z"/>
			</g>
		</g>
	</g>
</g>
</svg>
